<svg xmlns="http://www.w3.org/2000/svg" viewBox="0 0 507.77 150.8"><g id="Layer_4" data-name="Layer 4" style="opacity:0"><rect x="0.5" y="0.5" width="506.77" height="132.52" style="fill:#fff;stroke:#000;stroke-miterlimit:10"/></g><g id="TEXTS"><text transform="translate(125.75 150.8)" style="font-size:139px;fill:#394d37;font-family:Regina_Script, Regina Script">Food<tspan x="169.99" y="0" style="fill:#58ad53">Share</tspan></text><path d="M207.05,295.53a3.13,3.13,0,0,1-5.61-2.14,55.24,55.24,0,0,0-2.21-21.7c-.16-.48-.3-.92-.44-1.3,2.86-5.51,1.91-16.13-.34-21.09A12.34,12.34,0,1,0,176,259.49c2.37,5.22,10.42,13.5,16.6,14.34a48,48,0,0,1-7.92,34.74,8.75,8.75,0,0,1-9.54,3.54l-1.14-.32a10,10,0,0,0-5.34,0c-3,.82-5.85,1.94-13.67-.42-12.3-3.7-35.59-28.33-31.14-57.4,2.76-18,11.2-26.05,19.1-28a4.17,4.17,0,0,1,4.68,6c-9,17.44-6.48,32.81-5.54,36.95l-.31.12a4.1,4.1,0,0,0-2.55,5.19l6.6,16.9a1.17,1.17,0,0,0,1.54.59l.14-.06a1.76,1.76,0,0,0,1.11-2.22l-4.31-11a1.35,1.35,0,0,1,.86-1.71,1.36,1.36,0,0,1,1.78.69l4.31,11a2.15,2.15,0,0,0,4-1.57l-4.31-11a1.35,1.35,0,0,1,.84-1.71,1.37,1.37,0,0,1,1.8.68l4.29,11a1.76,1.76,0,0,0,2.33.89l.14,0a1.18,1.18,0,0,0,.72-1.5l-6.59-16.88a4.1,4.1,0,0,0-5.41-2.09l-.48.19a47.53,47.53,0,0,1,9.35-29.51,7.77,7.77,0,0,1,8.4-2.89,22.48,22.48,0,0,0,4.91.95h.14a29.52,29.52,0,0,0,15.8-6.67c7.93-6.38,27.14-3.35,31.59,25.72C221.21,270.15,215.09,285,207.05,295.53Z" transform="translate(-114.12 -188.71)" style="fill:#58ad53"/><path d="M187.08,199.06a17.59,17.59,0,0,0-15.91,8.87c-5,8.18.28,18.22.28,18.22s11.33-.45,15.91-8.88A17.6,17.6,0,0,0,187.08,199.06Z" transform="translate(-114.12 -188.71)" style="fill:#58ad53"/><path d="M182.56,245.72c-3.9,2.25-5.91,6-4.54,11.12-.44-5.81,10.19-12.87,15.29-10.07C191.21,245.14,187.21,243,182.56,245.72Z" transform="translate(-114.12 -188.71)" style="fill:#58ad53"/></g></svg>